# xmcd CD database file
#
# Track frame offsets:
#	150
#	9802
#	21895
#	33665
#	93037
#	104495
#	118817
#
# Disc length: 1888 seconds
#
# Revision: 0
# Processed by: cddbd v1.5.2PL0 Copyright (c) Steve Scherf et al.
# Submitted via: CDex 1.51
#
DISCID=4b075e07
DTITLE=Varios - Grandes Sucessos Da Musica - Jovem Guarda
DYEAR=1900
DGENRE=Jazz
TTITLE0=Sergio Murillo - Oh Carol
TTITLE1=Wanderlea - Prova De Fogo
TTITLE2=Wanderlea - Pare O Casamento
TTITLE3=Os Vips - Pout Pourri
TTITLE4=Erasmo Carlos - Vem Quente Que Eu Estou Fervendo
TTITLE5=Jerry Adriani - Era Um Garoto Que Como Eu Amava Os Beatles
TTITLE6=Golden Boys - Pot Pourri
EXTD=
EXTT0=
EXTT1=
EXTT2=
EXTT3=
EXTT4=
EXTT5=
EXTT6=
PLAYORDER=
